<svg xmlns="http://www.w3.org/2000/svg" width="540" height="280" viewBox="0 0 540 280"><defs><clipPath id="clipid-0"><rect x="0" y="0" width="540" height="280"></rect></clipPath><clipPath id="clipid-1"><rect x="1" y="1" width="290" height="133"></rect></clipPath><clipPath id="clipid-2"><rect x="2" y="2" width="288" height="53"></rect></clipPath><clipPath id="clipid-3"><rect x="2" y="56" width="157" height="77"></rect></clipPath><clipPath id="clipid-4"><rect x="160" y="56" width="130" height="77"></rect></clipPath><clipPath id="clipid-5"><rect x="292" y="1" width="247" height="133"></rect></clipPath><clipPath id="clipid-6"><rect x="293" y="2" width="245" height="41"></rect></clipPath><clipPath id="clipid-7"><rect x="293" y="44" width="128" height="49"></rect></clipPath><clipPath id="clipid-8"><rect x="422" y="44" width="116" height="49"></rect></clipPath><clipPath id="clipid-9"><rect x="293" y="94" width="134" height="39"></rect></clipPath><clipPath id="clipid-10"><rect x="428" y="94" width="110" height="39"></rect></clipPath><clipPath id="clipid-11"><rect x="1" y="135" width="404" height="75"></rect></clipPath><clipPath id="clipid-12"><rect x="2" y="136" width="223" height="73"></rect></clipPath><clipPath id="clipid-13"><rect x="226" y="136" width="178" height="73"></rect></clipPath><clipPath id="clipid-14"><rect x="1" y="211" width="404" height="68"></rect></clipPath><clipPath id="clipid-15"><rect x="2" y="212" width="176" height="66"></rect></clipPath><clipPath id="clipid-16"><rect x="179" y="212" width="122" height="66"></rect></clipPath><clipPath id="clipid-17"><rect x="302" y="212" width="102" height="66"></rect></clipPath><clipPath id="clipid-18"><rect x="406" y="135" width="133" height="144"></rect></clipPath><clipPath id="clipid-19"><rect x="407" y="136" width="131" height="72"></rect></clipPath><clipPath id="clipid-20"><rect x="407" y="209" width="131" height="69"></rect></clipPath></defs><rect x="2" y="2" width="536" height="276" fill="#eaeaea"></rect><g><rect x="2" y="2" width="288" height="53" fill="#ffffff"></rect><rect x="2" y="2" width="288" height="53" fill="#ff7f00" fill-opacity="0.6"><title>regulation of postsynapse assembly
ngenes: 61 signif: 28
adj. p-value: 0.02643</title></rect><rect x="2" y="56" width="157" height="77" fill="#ffffff"></rect><rect x="2" y="56" width="157" height="77" fill="#ff7f00" fill-opacity="0.6"><title>structural constituent of synapse
ngenes: 38 signif: 15
adj. p-value: 0.0002232</title></rect><rect x="160" y="56" width="130" height="77" fill="#ffffff"></rect><rect x="160" y="56" width="130" height="77" fill="#ff7f00" fill-opacity="0.6"><title>postsynaptic density assembly
ngenes: 26 signif: 8
adj. p-value: 0.02760</title></rect><rect x="293" y="2" width="245" height="41" fill="#ffffff"></rect><rect x="293" y="2" width="245" height="41" fill="#984ea3" fill-opacity="0.6"><title>synaptic vesicle endocytosis
ngenes: 70 signif: 29
adj. p-value: 0.006781</title></rect><rect x="293" y="44" width="128" height="49" fill="#ffffff"></rect><rect x="293" y="44" width="128" height="49" fill="#984ea3" fill-opacity="0.6"><title>regulation of presynaptic cytosolic calcium levels
ngenes: 28 signif: 11
adj. p-value: 1.211e-6</title></rect><rect x="422" y="44" width="116" height="49" fill="#ffffff"></rect><rect x="422" y="44" width="116" height="49" fill="#984ea3" fill-opacity="0.6"><title>ligand-gated ion channel activity involved in regulation of presynaptic membrane potential
ngenes: 23 signif: 10
adj. p-value: 0.0007850</title></rect><rect x="293" y="94" width="134" height="39" fill="#ffffff"></rect><rect x="293" y="94" width="134" height="39" fill="#984ea3" fill-opacity="0.6"><title>synaptic vesicle priming
ngenes: 19 signif: 11
adj. p-value: 6.166e-6</title></rect><rect x="428" y="94" width="110" height="39" fill="#ffffff"></rect><rect x="428" y="94" width="110" height="39" fill="#984ea3" fill-opacity="0.6"><title>calcium-dependent activation of synaptic vesicle fusion
ngenes: 13 signif: 8
adj. p-value: 1.078e-5</title></rect><rect x="2" y="136" width="223" height="73" fill="#ffffff"></rect><rect x="2" y="136" width="223" height="73" fill="#4daf4a" fill-opacity="0.6"><title>neurotransmitter receptor localization to postsynaptic specialization membrane
ngenes: 58 signif: 20
adj. p-value: 0.0007941</title></rect><rect x="226" y="136" width="178" height="73" fill="#ffffff"></rect><rect x="226" y="136" width="178" height="73" fill="#4daf4a" fill-opacity="0.6"><title>transmitter-gated ion channel activity involved in regulation of postsynaptic membrane potential
ngenes: 37 signif: 15
adj. p-value: 0.0002235</title></rect><rect x="2" y="212" width="176" height="66" fill="#ffffff"></rect><rect x="2" y="212" width="176" height="66" fill="#e41a1c" fill-opacity="0.6"><title>modulation of chemical synaptic transmission
ngenes: 97 signif: 32
adj. p-value: 8.257e-6</title></rect><rect x="179" y="212" width="122" height="66" fill="#ffffff"></rect><rect x="179" y="212" width="122" height="66" fill="#e41a1c" fill-opacity="0.6"><title>presynaptic modulation of chemical synaptic transmission
ngenes: 47 signif: 16
adj. p-value: 2.001e-7</title></rect><rect x="302" y="212" width="102" height="66" fill="#ffffff"></rect><rect x="302" y="212" width="102" height="66" fill="#e41a1c" fill-opacity="0.6"><title>postsynaptic modulation of chemical synaptic transmission
ngenes: 33 signif: 9
adj. p-value: 0.01616</title></rect><rect x="407" y="136" width="131" height="72" fill="#ffffff"></rect><rect x="407" y="136" width="131" height="72" fill="#377eb8" fill-opacity="0.6"><title>translation at postsynapse
ngenes: 56 signif: 42
adj. p-value: 1.529e-16</title></rect><rect x="407" y="209" width="131" height="69" fill="#ffffff"></rect><rect x="407" y="209" width="131" height="69" fill="#377eb8" fill-opacity="0.6"><title>translation at presynapse
ngenes: 51 signif: 42
adj. p-value: 1.967e-18</title></rect></g><g><text font-size="12px" font-family="Arial, Helvetica, sans-serif" text-anchor="middle" dominant-baseline="middle" x="2" y="2" fill="black" clip-path="url(#clipid-2)"><tspan x="146" y="28.5">regulation of postsynapse assembly</tspan></text><text font-size="12px" font-family="Arial, Helvetica, sans-serif" text-anchor="middle" dominant-baseline="middle" x="2" y="56" fill="black" clip-path="url(#clipid-3)"><tspan x="80.5" y="88.5">structural constituent of</tspan><tspan x="80.5" y="100.5">synapse</tspan></text><text font-size="12px" font-family="Arial, Helvetica, sans-serif" text-anchor="middle" dominant-baseline="middle" x="160" y="56" fill="black" clip-path="url(#clipid-4)"><tspan x="225" y="88.5">postsynaptic density</tspan><tspan x="225" y="100.5">assembly</tspan></text><text font-size="12px" font-family="Arial, Helvetica, sans-serif" text-anchor="middle" dominant-baseline="middle" x="293" y="2" fill="black" clip-path="url(#clipid-6)"><tspan x="415.5" y="22.5">synaptic vesicle endocytosis</tspan></text><text font-size="12px" font-family="Arial, Helvetica, sans-serif" text-anchor="middle" dominant-baseline="middle" x="293" y="44" fill="black" clip-path="url(#clipid-7)"><tspan x="357" y="56.5">regulation of</tspan><tspan x="357" y="68.5">presynaptic cytosolic</tspan><tspan x="357" y="80.5">calcium levels</tspan></text><text font-size="12px" font-family="Arial, Helvetica, sans-serif" text-anchor="middle" dominant-baseline="middle" x="422" y="44" fill="black" clip-path="url(#clipid-8)"><tspan x="480" y="50.5">ligand-gated ion</tspan><tspan x="480" y="62.5">channel activity</tspan><tspan x="480" y="74.5">involved in</tspan><tspan x="480" y="86.5">regulation…</tspan></text><text font-size="12px" font-family="Arial, Helvetica, sans-serif" text-anchor="middle" dominant-baseline="middle" x="293" y="94" fill="black" clip-path="url(#clipid-9)"><tspan x="360" y="107.5">synaptic vesicle</tspan><tspan x="360" y="119.5">priming</tspan></text><text font-size="12px" font-family="Arial, Helvetica, sans-serif" text-anchor="middle" dominant-baseline="middle" x="428" y="94" fill="black" clip-path="url(#clipid-10)"><tspan x="483" y="101.5">calcium-</tspan><tspan x="483" y="113.5">dependent</tspan><tspan x="483" y="125.5">activation…</tspan></text><text font-size="12px" font-family="Arial, Helvetica, sans-serif" text-anchor="middle" dominant-baseline="middle" x="2" y="136" fill="black" clip-path="url(#clipid-12)"><tspan x="113.5" y="160.5">neurotransmitter receptor localization</tspan><tspan x="113.5" y="172.5">to postsynaptic specialization</tspan><tspan x="113.5" y="184.5">membrane</tspan></text><text font-size="12px" font-family="Arial, Helvetica, sans-serif" text-anchor="middle" dominant-baseline="middle" x="226" y="136" fill="black" clip-path="url(#clipid-13)"><tspan x="315" y="154.5">transmitter-gated ion channel</tspan><tspan x="315" y="166.5">activity involved in regulation of</tspan><tspan x="315" y="178.5">postsynaptic membrane</tspan><tspan x="315" y="190.5">potential</tspan></text><text font-size="12px" font-family="Arial, Helvetica, sans-serif" text-anchor="middle" dominant-baseline="middle" x="2" y="212" fill="black" clip-path="url(#clipid-15)"><tspan x="90" y="239">modulation of chemical</tspan><tspan x="90" y="251">synaptic transmission</tspan></text><text font-size="12px" font-family="Arial, Helvetica, sans-serif" text-anchor="middle" dominant-baseline="middle" x="179" y="212" fill="black" clip-path="url(#clipid-16)"><tspan x="240" y="227">presynaptic</tspan><tspan x="240" y="239">modulation of</tspan><tspan x="240" y="251">chemical synaptic</tspan><tspan x="240" y="263">transmission</tspan></text><text font-size="12px" font-family="Arial, Helvetica, sans-serif" text-anchor="middle" dominant-baseline="middle" x="302" y="212" fill="black" clip-path="url(#clipid-17)"><tspan x="353" y="221">postsynaptic</tspan><tspan x="353" y="233">modulation of</tspan><tspan x="353" y="245">chemical</tspan><tspan x="353" y="257">synaptic</tspan><tspan x="353" y="269">transmission</tspan></text><text font-size="12px" font-family="Arial, Helvetica, sans-serif" text-anchor="middle" dominant-baseline="middle" x="407" y="136" fill="black" clip-path="url(#clipid-19)"><tspan x="472.5" y="166">translation at</tspan><tspan x="472.5" y="178">postsynapse</tspan></text><text font-size="12px" font-family="Arial, Helvetica, sans-serif" text-anchor="middle" dominant-baseline="middle" x="407" y="209" fill="black" clip-path="url(#clipid-20)"><tspan x="472.5" y="237.5">translation at</tspan><tspan x="472.5" y="249.5">presynapse</tspan></text></g></svg>