<?xml version="1.0" standalone="no"?>
<!DOCTYPE svg PUBLIC "-//W3C//DTD SVG 20010904//EN"
 "http://www.w3.org/TR/2001/REC-SVG-20010904/DTD/svg10.dtd">
<svg version="1.0" xmlns="http://www.w3.org/2000/svg"
 width="512.000000pt" height="512.000000pt" viewBox="0 0 512.000000 512.000000"
 preserveAspectRatio="xMidYMid meet">
<metadata>
Created by potrace 1.14, written by Peter Selinger 2001-2017
</metadata>
<g transform="translate(0.000000,512.000000) scale(0.100000,-0.100000)"
fill="#000000" stroke="none">
<path d="M2180 4636 c-94 -20 -149 -54 -240 -145 -120 -121 -223 -309 -260
-471 -7 -30 -19 -62 -26 -71 -8 -8 -59 -37 -115 -64 l-101 -49 -139 -6 c-147
-8 -173 -16 -205 -65 -47 -71 7 -233 111 -335 25 -24 45 -49 45 -55 0 -24 -54
-123 -126 -230 -85 -128 -114 -204 -114 -299 0 -135 53 -259 153 -358 62 -62
67 -70 67 -111 0 -57 22 -129 69 -227 22 -44 42 -104 46 -133 12 -84 45 -104
71 -42 21 51 56 49 77 -5 20 -51 50 -55 63 -7 8 25 16 33 37 35 21 3 29 -2 36
-21 13 -34 30 -42 48 -24 12 12 15 39 15 121 -1 66 3 106 9 106 6 0 29 -4 52
-9 23 -6 58 -13 78 -16 l36 -5 7 -95 c8 -124 43 -256 106 -407 29 -68 56 -150
61 -183 5 -33 6 -154 3 -270 -6 -178 -4 -220 10 -275 36 -140 109 -193 265
-193 104 -1 153 12 219 57 l49 35 6 -54 c11 -104 68 -189 153 -227 146 -64
388 -37 470 54 69 75 80 143 83 513 4 481 30 675 91 675 53 0 61 -78 34 -334
-20 -190 -14 -270 27 -353 56 -116 141 -159 303 -151 182 9 281 93 327 278 19
76 20 1154 1 1313 -26 218 -80 361 -178 467 l-55 59 39 65 c22 36 52 105 68
153 25 76 29 103 28 198 0 144 -23 205 -104 286 -47 47 -68 61 -124 78 -112
35 -204 25 -258 -26 -35 -33 -46 -73 -54 -183 -9 -130 -49 -235 -121 -317 -25
-28 -35 -32 -94 -36 l-66 -4 34 66 c41 80 66 195 61 274 -4 46 -10 63 -31 84
-37 37 -118 43 -211 14 -52 -16 -94 -21 -180 -21 -111 0 -114 1 -187 38 -41
21 -93 46 -116 55 -24 9 -43 20 -43 25 0 4 24 57 54 117 94 190 173 269 373
376 123 66 139 85 102 125 -35 37 -84 49 -204 49 -88 0 -123 -5 -175 -23 -183
-63 -317 -194 -453 -443 l-57 -106 -60 10 c-69 11 -68 -7 -13 177 47 160 135
336 217 434 36 43 66 84 66 92 0 32 -67 41 -160 20z m-522 -903 c6 -32 14 -84
17 -115 4 -32 8 -58 9 -58 2 0 33 20 69 44 126 85 263 121 432 113 167 -7 293
-44 435 -127 l68 -40 123 0 c94 0 138 5 191 21 84 25 124 23 122 -6 -12 -154
-79 -237 -229 -281 -65 -19 -191 -24 -269 -11 -41 7 -48 6 -43 -6 3 -8 11 -60
17 -115 20 -167 -8 -348 -74 -487 -149 -315 -472 -438 -840 -322 -64 20 -70
25 -87 64 -10 23 -21 58 -25 78 l-6 35 -92 0 c-82 0 -96 3 -142 29 -137 79
-201 248 -150 398 31 91 35 92 105 21 54 -57 61 -67 61 -105 0 -61 -15 -93
-43 -93 -13 0 -28 5 -35 12 -8 8 -20 4 -47 -16 -19 -15 -35 -29 -35 -31 0 -13
50 -47 81 -55 28 -8 48 -7 78 4 26 9 43 10 47 4 15 -24 91 -48 152 -48 56 0
132 20 132 35 0 3 -10 21 -22 40 -18 27 -28 33 -43 28 -37 -12 -115 -6 -140
11 -22 14 -25 24 -25 75 l0 59 81 48 c91 54 110 75 93 101 -25 41 -41 40 -125
-5 l-79 -43 -66 55 c-36 31 -70 56 -75 56 -5 0 9 27 31 61 53 76 97 172 105
224 7 39 6 41 -56 90 -99 80 -146 162 -111 197 6 6 51 14 101 19 86 8 182 39
261 84 14 8 28 14 31 15 4 0 11 -26 17 -57z m2082 -52 c77 -41 111 -184 75
-321 -17 -67 -69 -178 -123 -265 l-31 -50 63 -65 c196 -204 221 -339 214
-1165 -3 -368 -5 -414 -21 -445 -28 -58 -67 -75 -172 -75 -105 0 -137 14 -162
72 -13 32 -13 47 1 135 33 204 16 326 -55 403 -75 81 -201 83 -278 6 -78 -78
-100 -215 -110 -661 -5 -277 -8 -319 -23 -343 -46 -69 -301 -78 -372 -12 -23
22 -26 31 -26 99 0 41 5 143 11 226 7 106 7 177 0 237 -12 96 -29 126 -70 121
-42 -5 -58 -49 -81 -227 -23 -179 -34 -209 -89 -244 -47 -28 -193 -37 -238
-14 -57 30 -58 33 -58 246 l0 196 -56 130 c-65 150 -96 266 -106 394 l-6 89
49 7 c78 12 173 44 255 86 260 135 418 399 423 707 l1 102 35 10 c72 21 275
50 423 60 l152 11 55 58 c106 113 165 243 179 395 7 68 13 93 27 103 25 18 73
16 114 -6z"/>
<path d="M1958 3174 c-70 -38 -64 -145 10 -180 29 -13 41 -14 73 -5 49 15 69
44 69 99 0 82 -78 127 -152 86z"/>
</g>
</svg>
